<svg xmlns="http://www.w3.org/2000/svg" width="1200" height="630" viewBox="0 0 1200 630"><defs><radialGradient id="bg"><stop stop-color="#703647"/><stop offset="1" stop-color="#28151f"/></radialGradient><linearGradient id="gold" x2="1" y2="1"><stop stop-color="#977144"/><stop offset=".4" stop-color="#f3ddb0"/><stop offset=".65" stop-color="#c59b60"/><stop offset="1" stop-color="#f6e4bc"/></linearGradient><pattern id="pattern" width="48" height="48" patternUnits="userSpaceOnUse"><path d="M24 0L48 24L24 48L0 24Z" fill="none" stroke="#dab579" stroke-opacity=".055"/></pattern></defs><rect width="1200" height="630" fill="url(#bg)"/><rect width="1200" height="630" fill="url(#pattern)"/><rect x="24" y="24" width="1152" height="582" rx="16" fill="none" stroke="url(#gold)"/><rect x="33" y="33" width="1134" height="564" rx="10" fill="none" stroke="#d7b47a" stroke-opacity=".35"/><path d="M405 416V244C405 126 510 102 600 65C690 102 795 126 795 244V416" fill="none" stroke="url(#gold)" stroke-width="2"/><path d="M417 410V245C417 137 520 115 600 80C680 115 783 137 783 245V410" fill="none" stroke="#d6b47b" stroke-opacity=".35"/><text x="600" y="155" text-anchor="middle" fill="#e3c99f" font-family="Georgia,serif" font-size="13" letter-spacing="7">THE WEDDING OF</text><g fill="url(#gold)" font-family="Georgia,serif" font-style="italic"><text x="472" y="331" font-size="168">H</text><text x="599" y="370" font-size="168">N</text><text x="596" y="292" font-size="58">&amp;</text></g><path d="M493 389Q600 416 707 389" fill="none" stroke="url(#gold)"/><path d="M268 471Q125 348 247 202M932 471Q1075 348 953 202" fill="none" stroke="#cba971" stroke-width="2"/><g transform="translate(240 450) rotate(-60)"><path d="M0 0Q-38 -40 0 -64Q38 -40 0 0" fill="url(#gold)" opacity=".65"/><path d="M0 0V-57" stroke="#f6e6bd" stroke-width="1"/></g><g transform="translate(213 411) rotate(-65)"><path d="M0 0Q-38 -40 0 -64Q38 -40 0 0" fill="url(#gold)" opacity=".65"/><path d="M0 0V-57" stroke="#f6e6bd" stroke-width="1"/></g><g transform="translate(193 367) rotate(-70)"><path d="M0 0Q-38 -40 0 -64Q38 -40 0 0" fill="url(#gold)" opacity=".65"/><path d="M0 0V-57" stroke="#f6e6bd" stroke-width="1"/></g><g transform="translate(185 320) rotate(-75)"><path d="M0 0Q-38 -40 0 -64Q38 -40 0 0" fill="url(#gold)" opacity=".65"/><path d="M0 0V-57" stroke="#f6e6bd" stroke-width="1"/></g><g transform="translate(192 274) rotate(-90)"><path d="M0 0Q-38 -40 0 -64Q38 -40 0 0" fill="url(#gold)" opacity=".65"/><path d="M0 0V-57" stroke="#f6e6bd" stroke-width="1"/></g><g transform="translate(216 231) rotate(-105)"><path d="M0 0Q-38 -40 0 -64Q38 -40 0 0" fill="url(#gold)" opacity=".65"/><path d="M0 0V-57" stroke="#f6e6bd" stroke-width="1"/></g><g transform="translate(960 450) rotate(60)"><path d="M0 0Q-38 -40 0 -64Q38 -40 0 0" fill="url(#gold)" opacity=".65"/><path d="M0 0V-57" stroke="#f6e6bd" stroke-width="1"/></g><g transform="translate(987 411) rotate(65)"><path d="M0 0Q-38 -40 0 -64Q38 -40 0 0" fill="url(#gold)" opacity=".65"/><path d="M0 0V-57" stroke="#f6e6bd" stroke-width="1"/></g><g transform="translate(1007 367) rotate(70)"><path d="M0 0Q-38 -40 0 -64Q38 -40 0 0" fill="url(#gold)" opacity=".65"/><path d="M0 0V-57" stroke="#f6e6bd" stroke-width="1"/></g><g transform="translate(1015 320) rotate(75)"><path d="M0 0Q-38 -40 0 -64Q38 -40 0 0" fill="url(#gold)" opacity=".65"/><path d="M0 0V-57" stroke="#f6e6bd" stroke-width="1"/></g><g transform="translate(1008 274) rotate(90)"><path d="M0 0Q-38 -40 0 -64Q38 -40 0 0" fill="url(#gold)" opacity=".65"/><path d="M0 0V-57" stroke="#f6e6bd" stroke-width="1"/></g><g transform="translate(984 231) rotate(105)"><path d="M0 0Q-38 -40 0 -64Q38 -40 0 0" fill="url(#gold)" opacity=".65"/><path d="M0 0V-57" stroke="#f6e6bd" stroke-width="1"/></g><g fill="#ebcf9d"><path d="M600 48l5 8-5 8-5-8z"/><path d="M105 105l4 10 10 4-10 4-4 10-4-10-10-4 10-4z"/><path d="M1095 497l4 10 10 4-10 4-4 10-4-10-10-4 10-4z"/></g><text x="600" y="479" text-anchor="middle" fill="#fff0da" font-family="Georgia,serif" font-size="43">Athar Husain &amp; Samar Nayab</text><path d="M390 520H487M713 520H810" stroke="#ba935b"/><text x="600" y="526" text-anchor="middle" fill="#e3c99f" font-family="Georgia,serif" font-size="19" letter-spacing="3">21 NOVEMBER 2026</text><text x="600" y="563" text-anchor="middle" fill="#c9ac91" font-family="Georgia,serif" font-size="12" letter-spacing="5">TOGETHER, BY THE GRACE OF ALLAH</text></svg>